PathFileType	3	(X/Y/Z)	D:\VICON_DB\Goncalves\Pilot01\09-03-2026\bw_sq_01.trc
DataRate	CameraRate	NumFrames	NumMarkers	Units	OrigDataRate	OrigDataStartFrame	OrigNumFrames
200.0	200.0	10	34	mm	200.0	672	767	
Frame#	Time	LASI			RASI			LPSI			RPSI			LTHI			LTHAP			LTHAD			LKNE			LKNM			LTIB			LTIAP			LTIAD			LANK			LMED			LHEE			LTOE			LFMH			LSMH			LVMH			RTHI			RTHAP			RTHAD			RKNE			RKNM			RTIB			RTIAP			RTIAD			RANK			RMED			RHEE			RTOE			RFMH			RSMH			RVMH			
		X1	Y1	Z1	X2	Y2	Z2	X3	Y3	Z3	X4	Y4	Z4	X5	Y5	Z5	X6	Y6	Z6	X7	Y7	Z7	X8	Y8	Z8	X9	Y9	Z9	X10	Y10	Z10	X11	Y11	Z11	X12	Y12	Z12	X13	Y13	Z13	X14	Y14	Z14	X15	Y15	Z15	X16	Y16	Z16	X17	Y17	Z17	X18	Y18	Z18	X19	Y19	Z19	X20	Y20	Z20	X21	Y21	Z21	X22	Y22	Z22	X23	Y23	Z23	X24	Y24	Z24	X25	Y25	Z25	X26	Y26	Z26	X27	Y27	Z27	X28	Y28	Z28	X29	Y29	Z29	X30	Y30	Z30	X31	Y31	Z31	X32	Y32	Z32	X33	Y33	Z33	X34	Y34	Z34	
672	3.355	139.6718	899.2135	-1063.374	143.19441	902.14349	-1321.9252				333.49023	954.66046	-1219.3485	135.26198	699.34973	-1027.7986	157.08263	770.68762	-1014.9438	171.58098	633.35211	-999.60492	202.78012	473.17667	-1020.4888				248.28825	279.22812	-1002.0295	182.8181	351.0441	-1056.0758	209.71515	248.98689	-1030.6321	284.35403	69.054596	-1028.1573				328.16193	64.729271	-1080.3521	205.15868	71.340614	-1048.3184	149.60817	45.158459	-1075.9923				163.21634	25.020163	-995.49707	179.43109	628.43909	-1375.2924	146.19713	755.72919	-1352.6002	125.16372	663.85809	-1332.6016	220.16716	491.12958	-1356.5814				240.12283	294.90988	-1376.7167	197.60349	343.47806	-1322.8383	207.31052	261.8989	-1325.4222	293.76526	62.380192	-1352.8613				330.51874	59.790081	-1310.6558	201.82593	68.427856	-1335.5522	152.00983	49.092854	-1310.5057				164.78578	19.844347	-1384.0406
673	3.36	138.87555	899.53271	-1063.269	142.50095	902.2995	-1321.827				332.92191	954.33795	-1219.2021	134.71776	699.31976	-1027.6936	156.29008	770.80621	-1014.7819	171.38446	633.3656	-999.72675	203.34184	473.29446	-1020.5661				248.73166	279.30737	-1002.1043	183.44443	351.2186	-1056.2039	210.1125	249.13193	-1030.7123	284.39291	69.068146	-1028.1666				328.21457	64.671196	-1080.3845	205.18518	71.341957	-1048.3489	149.61345	45.15855	-1076.0054				163.22504	25.030785	-995.50928	179.33255	628.41309	-1375.1079	145.69577	755.66327	-1352.5009	124.80729	663.71033	-1332.5948	220.46678	491.19598	-1356.5068				240.42458	294.99963	-1376.6777	197.95117	343.58026	-1322.7941	207.55386	261.99814	-1325.3998	293.79187	62.390129	-1352.8022				330.53561	59.767811	-1310.5999	201.82959	68.436676	-1335.5317	152.0062	49.093529	-1310.5038				164.7964	19.838852	-1384.0382
674	3.365	138.09694	899.8446	-1063.1664	141.82538	902.44861	-1321.7354				332.37982	953.99377	-1219.0569	134.18573	699.28937	-1027.5869	155.51871	770.91998	-1014.6255	171.19646	633.37598	-999.84943	203.89532	473.40936	-1020.6357				249.16602	279.38312	-1002.1752	184.06042	351.38962	-1056.3273	210.50269	249.27333	-1030.7899	284.43008	69.080254	-1028.174				328.26682	64.613007	-1080.4155	205.21365	71.342194	-1048.3804	149.61819	45.158489	-1076.0189				163.23412	25.041201	-995.52191	179.22145	628.3855	-1374.9215	145.19832	755.59772	-1352.4011	124.44457	663.565	-1332.5872	220.73764	491.25861	-1356.4313				240.70401	295.08545	-1376.6389	198.27733	343.67688	-1322.7471	207.78377	262.09164	-1325.3724	293.81686	62.399563	-1352.7443				330.55002	59.746346	-1310.5461	201.83278	68.444939	-1335.511	152.00266	49.094135	-1310.502				164.80827	19.831833	-1384.0348
675	3.37	137.3364	900.1488	-1063.0659	141.16705	902.59052	-1321.6498				331.86227	953.63055	-1218.9131	133.66647	699.25873	-1027.4797	154.76945	771.02832	-1014.4756	171.01643	633.38348	-999.97302	204.43942	473.52118	-1020.6979				249.59055	279.45547	-1002.2422	184.66525	351.55695	-1056.4459	210.88483	249.41098	-1030.8655	284.46609	69.090675	-1028.1797				328.31851	64.554718	-1080.4445	205.24368	71.340935	-1048.4133	149.62216	45.15823	-1076.0332				163.24333	25.05125	-995.53497	179.09697	628.35681	-1374.7327	144.70346	755.53247	-1352.3008	124.07413	663.42181	-1332.578	220.98175	491.3179	-1356.3553				240.96402	295.16794	-1376.5999	198.58443	343.76862	-1322.6978	208.00174	262.17996	-1325.3413	293.84073	62.408485	-1352.687				330.56262	59.725636	-1310.4946	201.83591	68.452415	-1335.4901	151.99942	49.094551	-1310.5				164.82123	19.823467	-1384.0306
676	3.375	136.59415	900.44519	-1062.9664	140.52525	902.72565	-1321.5701				331.36731	953.25061	-1218.7709	133.16052	699.22803	-1027.3732	154.04305	771.13104	-1014.3319	170.84389	633.38843	-1000.0979	204.97304	473.62982	-1020.7531				250.00441	279.52438	-1002.3057	185.2581	351.72052	-1056.5604	211.25812	249.54489	-1030.9385	284.50128	69.099243	-1028.1846				328.3692	64.496452	-1080.4719	205.27473	71.337875	-1048.448	149.6252	45.1577	-1076.0485				163.25261	25.060848	-995.54828	178.95842	628.32758	-1374.5405	144.21039	755.46783	-1352.199	123.69474	663.28094	-1332.5679	221.20116	491.37439	-1356.2797				241.20753	295.24762	-1376.561	198.87483	343.85632	-1322.6466	208.20911	262.26392	-1325.3074	293.8638	62.416878	-1352.631				330.57419	59.705616	-1310.4448	201.83919	68.459	-1335.469	151.99672	49.094688	-1310.4985				164.83487	19.814064	-1384.0259
677	3.38	135.87048	900.73328	-1062.8673	139.89914	902.85413	-1321.4952				330.8931	952.85663	-1218.6305	132.66849	699.19733	-1027.2683	153.34018	771.2276	-1014.1943	170.67834	633.39111	-1000.2238	205.49525	473.73538	-1020.8012				250.40695	279.59	-1002.3658	185.83826	351.88	-1056.6704	211.62181	249.67499	-1031.0093	284.53629	69.10582	-1028.1892				328.41864	64.438385	-1080.4973	205.30635	71.332855	-1048.4849	149.62714	45.156883	-1076.0647				163.26169	25.069979	-995.56213	178.8053	628.29803	-1374.345	143.71844	755.40363	-1352.095	123.30556	663.14282	-1332.5568	221.39783	491.42865	-1356.2046				241.43738	295.32504	-1376.5229	199.15074	343.9407	-1322.5942	208.40714	262.34409	-1325.2717	293.88632	62.424686	-1352.5762				330.5853	59.686241	-1310.3967	201.84296	68.464699	-1335.448	151.99477	49.094521	-1310.4973				164.84888	19.804008	-1384.021
678	3.385	135.16554	901.0127	-1062.7672	139.28789	902.97656	-1321.4246				330.43759	952.45105	-1218.4924	132.19102	699.16669	-1027.1654	152.66124	771.31763	-1014.0623	170.51962	633.39209	-1000.351	206.00525	473.83801	-1020.8428				250.79749	279.65247	-1002.4224	186.40503	352.03549	-1056.7762	211.9753	249.80132	-1031.0779	284.57144	69.110237	-1028.1938				328.46664	64.380829	-1080.5204	205.3381	71.325798	-1048.524	149.6279	45.155785	-1076.0823				163.2704	25.078709	-995.57623	178.63733	628.26868	-1374.145	143.22742	755.34009	-1351.9883	122.90652	663.00745	-1332.5439	221.5737	491.48099	-1356.1311				241.65599	295.40057	-1376.4855	199.41408	344.0224	-1322.5415	208.59683	262.42105	-1325.2355	293.90863	62.43185	-1352.5223				330.59662	59.667526	-1310.35	201.84741	68.469612	-1335.4271	151.9937	49.094063	-1310.4963				164.86292	19.793732	-1384.0162
679	3.39	134.47932	901.28296	-1062.6653	138.69061	903.09314	-1321.3572				329.99908	952.03632	-1218.3564	131.7287	699.13611	-1027.0654	152.00645	771.40106	-1013.9352	170.36751	633.39166	-1000.4789	206.50235	473.93787	-1020.8781				251.17552	279.7121	-1002.4755	186.95796	352.18686	-1056.8777	212.3181	249.92397	-1031.1438	284.60736	69.112518	-1028.1986				328.51306	64.324112	-1080.5416	205.36963	71.316711	-1048.5653	149.62744	45.154453	-1076.1007				163.27856	25.08716	-995.5907	178.45447	628.23981	-1373.9414	142.73727	755.27692	-1351.8781	122.49833	662.87506	-1332.5286	221.73039	491.53168	-1356.0596				241.86548	295.47452	-1376.4491	199.66638	344.10181	-1322.4889	208.77907	262.49521	-1325.2002	293.93079	62.438358	-1352.47				330.60852	59.649574	-1310.3047	201.85278	68.473976	-1335.4067	151.99362	49.093365	-1310.4957				164.87677	19.783665	-1384.0116
680	3.395	133.81175	901.5434	-1062.5607	138.10637	903.20465	-1321.2919				329.57599	951.61444	-1218.2231	131.28198	699.10565	-1026.9677	151.37581	771.47778	-1013.8126	170.222	633.39044	-1000.6072	206.98608	474.03522	-1020.9072				251.54086	279.7692	-1002.5248	187.49669	352.33432	-1056.975	212.65005	250.04312	-1031.207	284.64435	69.112778	-1028.2043				328.55768	64.268646	-1080.5605	205.4007	71.30571	-1048.6084	149.62587	45.152985	-1076.1204				163.28604	25.095503	-995.60547	178.25693	628.21191	-1373.7346	142.24826	755.21375	-1351.7634	122.08226	662.74597	-1332.5095	221.8694	491.58087	-1355.9904				242.0675	295.54697	-1376.4146	199.90881	344.17923	-1322.4375	208.95451	262.56717	-1325.1666	293.95288	62.444363	-1352.4187				330.62125	59.632572	-1310.2609	201.85912	68.477982	-1335.3871	151.99454	49.092503	-1310.4957				164.89024	19.774157	-1384.0073
681	3.4	133.16258	901.79358	-1062.4524	137.53423	903.3114	-1321.2278				329.16696	951.18701	-1218.0923	130.85123	699.0752	-1026.8722	150.76915	771.54785	-1013.6932	170.08308	633.38855	-1000.7352	207.45615	474.13034	-1020.9304				251.89346	279.82394	-1002.5705	188.02118	352.47821	-1057.0677	212.9711	250.15903	-1031.2676	284.68277	69.111282	-1028.2106				328.60043	64.214897	-1080.5775	205.43111	71.292976	-1048.653	149.62329	45.151508	-1076.1411				163.29272	25.103888	-995.62061	178.04515	628.18561	-1373.5249	141.76062	755.15051	-1351.6445	121.66007	662.62024	-1332.4855	221.99179	491.62878	-1355.9242				242.26311	295.61795	-1376.3813	200.14203	344.25482	-1322.3879	209.1236	262.63715	-1325.1354	293.97491	62.450134	-1352.3689				330.63492	59.616795	-1310.2189	201.86646	68.481888	-1335.3684	151.99638	49.091518	-1310.4965				164.90321	19.765409	-1384.0037
